<?xml version="1.0" standalone="no"?>
<!DOCTYPE svg PUBLIC "-//W3C//DTD SVG 20010904//EN"
 "http://www.w3.org/TR/2001/REC-SVG-20010904/DTD/svg10.dtd">
<svg version="1.0" xmlns="http://www.w3.org/2000/svg"
 width="512.000000pt" height="512.000000pt" viewBox="0 0 512.000000 512.000000"
 preserveAspectRatio="xMidYMid meet">

<g transform="translate(0.000000,512.000000) scale(0.100000,-0.100000)"
fill="#6caddf" stroke="none">
<path d="M2375 4984 c-16 -2 -66 -9 -110 -15 -104 -13 -288 -60 -395 -99 -711
-261 -1216 -898 -1310 -1650 -15 -125 -12 -396 5 -519 39 -271 125 -517 260
-746 124 -210 171 -262 972 -1065 l763 -765 753 755 c414 415 778 787 809 825
200 250 347 556 406 850 38 184 45 270 39 485 -4 168 -10 227 -32 330 -87 414
-286 778 -581 1059 -299 286 -657 466 -1069 537 -86 15 -443 28 -510 18z m464
-594 c237 -48 439 -143 627 -294 250 -201 425 -484 502 -810 23 -98 26 -133
26 -301 1 -214 -11 -297 -71 -470 -77 -222 -198 -410 -371 -576 -200 -193
-435 -317 -712 -376 -121 -26 -439 -26 -560 0 -277 59 -516 185 -714 377 -216
209 -353 453 -419 750 -29 130 -31 432 -3 560 90 416 327 753 681 965 164 98
362 167 560 194 108 15 334 6 454 -19z"/>
</g>
</svg>
